
<svg width="742px" height="189px" viewBox="0 0 742 189" version="1.1" xmlns="http://www.w3.org/2000/svg" xmlns:xlink="http://www.w3.org/1999/xlink">
    <!-- Generator: Sketch 44.1 (41455) - http://www.bohemiancoding.com/sketch -->
    <desc>Created with Sketch.</desc>
    <defs></defs>
    <g id="Page-1" stroke="none" stroke-width="1" fill="none" fill-rule="evenodd">
        <g id="scenario">
            <g id="ob-1" transform="translate(76.000000, 55.000000)">
                <rect id="Rectangle-1" fill="#979797" x="0" y="0" width="72" height="72" rx="8"></rect>
                <text id="Ob-1" font-family="LucidaGrande, Lucida Grande" font-size="20" font-weight="normal" fill="#FFFFFF">
                    <tspan x="9.828125" y="45">Ob-1</tspan>
                </text>
            </g>
            <g id="ob-2" transform="translate(258.000000, 55.000000)">
                <rect id="Rectangle-1" fill="#9B4ECA" x="0" y="0" width="72" height="72" rx="8"></rect>
                <text id="Ob-2" font-family="LucidaGrande, Lucida Grande" font-size="20" font-weight="normal" fill="#FFFFFF">
                    <tspan x="9.828125" y="46">Ob-2</tspan>
                </text>
            </g>
            <g id="light" transform="translate(509.000000, 55.000000)">
                <rect id="Rectangle-1" fill="#FF9E00" x="0" y="0" width="72" height="72" rx="8"></rect>
                <text id="Light" font-family="LucidaGrande, Lucida Grande" font-size="20" font-weight="normal" fill="#FFFFFF">
                    <tspan x="11.5957031" y="45">Light</tspan>
                </text>
            </g>
            <rect id="Rectangle-4" fill="#C9AD94" x="32" y="130" width="679" height="24"></rect>
            <path d="M267.5,37.5 L323.5,37.5" id="Line" stroke="#979797" fill="#979797" stroke-linecap="square"></path>
            <path id="Line-decoration-1" d="M323.5,37.5 L312.7,34.5 L312.7,40.5 L323.5,37.5 Z" stroke="#979797" fill="#979797" stroke-linecap="square"></path>
            <path d="M486.5,36.5 L602.5,36.5" id="Line" stroke="#979797" fill="#979797" stroke-linecap="square"></path>
            <path id="Line-decoration-1" d="M602.5,36.5 L591.7,33.5 L591.7,39.5 L602.5,36.5 Z" stroke="#979797" fill="#979797" stroke-linecap="square"></path>
            <circle id="Oval-1" fill="#979797" cx="112" cy="37" r="4"></circle>
        </g>
    </g>
</svg>